[
    {
        "pitch": 36,
        "onset": 3.014197124267589,
        "offset": 3.113734996389246,
        "velocity": 43
    },
    {
        "pitch": 36,
        "onset": 3.4795649272332554,
        "offset": 3.5861023038629694,
        "velocity": 43
    },
    {
        "pitch": 36,
        "onset": 3.976856200435492,
        "offset": 4.077852845914057,
        "velocity": 43
    },
    {
        "pitch": 36,
        "onset": 4.4239291953759485,
        "offset": 4.5319716611634675,
        "velocity": 43
    },
    {
        "pitch": 38,
        "onset": 4.622007372703763,
        "offset": 4.683437151109157,
        "velocity": 36
    },
    {
        "pitch": 36,
        "onset": 4.759418422951311,
        "offset": 4.85746535992406,
        "velocity": 48
    },
    {
        "pitch": 36,
        "onset": 5.080933127201854,
        "offset": 5.177762669591634,
        "velocity": 43
    },
    {
        "pitch": 36,
        "onset": 5.600562802569885,
        "offset": 5.7020809345858385,
        "velocity": 46
    },
    {
        "pitch": 36,
        "onset": 6.040359278626335,
        "offset": 6.15069839607656,
        "velocity": 43
    },
    {
        "pitch": 36,
        "onset": 6.533822700406716,
        "offset": 6.632324419849181,
        "velocity": 43
    },
    {
        "pitch": 36,
        "onset": 7.645686985984232,
        "offset": 7.738011191425073,
        "velocity": 43
    },
    {
        "pitch": 36,
        "onset": 8.151726856262249,
        "offset": 8.25066703471075,
        "velocity": 46
    },
    {
        "pitch": 38,
        "onset": 8.15270609624019,
        "offset": 8.242265519058328,
        "velocity": 33
    },
    {
        "pitch": 36,
        "onset": 8.600605940426217,
        "offset": 8.698802106317663,
        "velocity": 43
    },
    {
        "pitch": 36,
        "onset": 9.10971950655502,
        "offset": 9.203596177955697,
        "velocity": 43
    },
    {
        "pitch": 36,
        "onset": 9.560054971513573,
        "offset": 9.657617827701491,
        "velocity": 43
    },
    {
        "pitch": 36,
        "onset": 10.186708459998385,
        "offset": 10.280307893964771,
        "velocity": 43
    },
    {
        "pitch": 36,
        "onset": 10.704932850017533,
        "offset": 10.793887105979708,
        "velocity": 48
    },
    {
        "pitch": 36,
        "onset": 11.14274882363419,
        "offset": 11.250568158016627,
        "velocity": 43
    },
    {
        "pitch": 36,
        "onset": 11.621057339283684,
        "offset": 11.720653675361465,
        "velocity": 43
    },
    {
        "pitch": 36,
        "onset": 12.081957524703023,
        "offset": 12.184941152669975,
        "velocity": 43
    },
    {
        "pitch": 36,
        "onset": 13.232229285706003,
        "offset": 13.334828087921275,
        "velocity": 46
    },
    {
        "pitch": 36,
        "onset": 13.685169850999358,
        "offset": 13.794786435220058,
        "velocity": 43
    },
    {
        "pitch": 36,
        "onset": 14.19963119425092,
        "offset": 14.296215856140044,
        "velocity": 43
    },
    {
        "pitch": 36,
        "onset": 14.649638321502,
        "offset": 14.688,
        "velocity": 43
    },
    {
        "pitch": 38,
        "onset": 15.173599896724442,
        "offset": 15.273068783788107,
        "velocity": 42
    },
    {
        "pitch": 36,
        "onset": 16.263002881849168,
        "offset": 16.37333288027784,
        "velocity": 43
    },
    {
        "pitch": 38,
        "onset": 17.081495613778493,
        "offset": 17.164873502869533,
        "velocity": 48
    },
    {
        "pitch": 36,
        "onset": 18.342631416281886,
        "offset": 18.441474603425533,
        "velocity": 43
    },
    {
        "pitch": 36,
        "onset": 18.817982185122244,
        "offset": 18.9134407312098,
        "velocity": 43
    },
    {
        "pitch": 36,
        "onset": 19.121088586004372,
        "offset": 19.136,
        "velocity": 43
    },
    {
        "pitch": 36,
        "onset": 19.625290162204497,
        "offset": 19.72402547305005,
        "velocity": 43
    },
    {
        "pitch": 36,
        "onset": 20.066315891860345,
        "offset": 20.168578065574184,
        "velocity": 43
    },
    {
        "pitch": 36,
        "onset": 20.380617872236048,
        "offset": 20.489615362003867,
        "velocity": 43
    },
    {
        "pitch": 36,
        "onset": 20.881774866876032,
        "offset": 20.984231613352904,
        "velocity": 43
    },
    {
        "pitch": 36,
        "onset": 21.31890202729196,
        "offset": 21.4162003357717,
        "velocity": 43
    },
    {
        "pitch": 38,
        "onset": 21.493670833762554,
        "offset": 21.587968923220362,
        "velocity": 36
    },
    {
        "pitch": 36,
        "onset": 21.643411990138734,
        "offset": 21.75214275082282,
        "velocity": 43
    },
    {
        "pitch": 38,
        "onset": 22.776478619343354,
        "offset": 22.849530989245896,
        "velocity": 36
    },
    {
        "pitch": 36,
        "onset": 23.444988653363314,
        "offset": 23.54409125259389,
        "velocity": 48
    },
    {
        "pitch": 36,
        "onset": 23.918608386117604,
        "offset": 24.023042869966883,
        "velocity": 43
    },
    {
        "pitch": 38,
        "onset": 24.245335229042393,
        "offset": 24.34169965130163,
        "velocity": 43
    },
    {
        "pitch": 36,
        "onset": 24.892906085523755,
        "offset": 24.998732018287114,
        "velocity": 43
    },
    {
        "pitch": 38,
        "onset": 25.067078852486343,
        "offset": 25.164556869782967,
        "velocity": 40
    },
    {
        "pitch": 36,
        "onset": 25.54231672320852,
        "offset": 25.63277633054663,
        "velocity": 48
    },
    {
        "pitch": 36,
        "onset": 26.034928261947034,
        "offset": 26.136207537923582,
        "velocity": 43
    },
    {
        "pitch": 36,
        "onset": 26.486662516641232,
        "offset": 26.598139109985382,
        "velocity": 43
    },
    {
        "pitch": 36,
        "onset": 26.971710103758195,
        "offset": 27.076490545434194,
        "velocity": 43
    },
    {
        "pitch": 36,
        "onset": 29.015738062129373,
        "offset": 29.122950656425612,
        "velocity": 43
    },
    {
        "pitch": 36,
        "onset": 29.51439838408108,
        "offset": 29.615077074204148,
        "velocity": 43
    },
    {
        "pitch": 36,
        "onset": 29.964454554394944,
        "offset": 30.071424674455383,
        "velocity": 43
    },
    {
        "pitch": 38,
        "onset": 30.775099898917748,
        "offset": 30.871124431569317,
        "velocity": 43
    },
    {
        "pitch": 36,
        "onset": 32.362651721715,
        "offset": 32.45523394499188,
        "velocity": 40
    },
    {
        "pitch": 36,
        "onset": 32.68413661506177,
        "offset": 32.783774526555476,
        "velocity": 36
    },
    {
        "pitch": 36,
        "onset": 33.672439417879865,
        "offset": 33.76982656051204,
        "velocity": 48
    },
    {
        "pitch": 36,
        "onset": 34.12760131026934,
        "offset": 34.23268970626361,
        "velocity": 43
    },
    {
        "pitch": 36,
        "onset": 34.63178075983698,
        "offset": 34.73164386850143,
        "velocity": 43
    },
    {
        "pitch": 36,
        "onset": 35.083106498257806,
        "offset": 35.18523578336431,
        "velocity": 43
    },
    {
        "pitch": 36,
        "onset": 35.722966264467125,
        "offset": 35.83085463261323,
        "velocity": 43
    },
    {
        "pitch": 36,
        "onset": 36.66612649561476,
        "offset": 36.778407153754905,
        "velocity": 43
    },
    {
        "pitch": 36,
        "onset": 37.15580548971838,
        "offset": 37.251107452559836,
        "velocity": 40
    },
    {
        "pitch": 36,
        "onset": 37.634245263971486,
        "offset": 37.73670712805067,
        "velocity": 43
    },
    {
        "pitch": 36,
        "onset": 38.79041031292218,
        "offset": 38.88021991142462,
        "velocity": 46
    },
    {
        "pitch": 36,
        "onset": 39.228491831393974,
        "offset": 39.33729889746984,
        "velocity": 43
    },
    {
        "pitch": 36,
        "onset": 39.73368843951259,
        "offset": 39.832626733612,
        "velocity": 43
    },
    {
        "pitch": 36,
        "onset": 41.319188688638754,
        "offset": 41.413195311277306,
        "velocity": 48
    },
    {
        "pitch": 36,
        "onset": 41.76473358300469,
        "offset": 41.86449670100903,
        "velocity": 43
    },
    {
        "pitch": 36,
        "onset": 42.266494038629304,
        "offset": 42.374893798014114,
        "velocity": 46
    },
    {
        "pitch": 36,
        "onset": 42.72833123661212,
        "offset": 42.768,
        "velocity": 46
    },
    {
        "pitch": 36,
        "onset": 42.914970825314455,
        "offset": 42.99859372692113,
        "velocity": 46
    },
    {
        "pitch": 36,
        "onset": 43.35487088847755,
        "offset": 43.45335027744353,
        "velocity": 43
    },
    {
        "pitch": 36,
        "onset": 43.86389278753028,
        "offset": 43.961420803939426,
        "velocity": 43
    },
    {
        "pitch": 36,
        "onset": 44.31241591382161,
        "offset": 44.41042578384028,
        "velocity": 43
    },
    {
        "pitch": 36,
        "onset": 44.823835573193485,
        "offset": 44.93656805097277,
        "velocity": 43
    },
    {
        "pitch": 36,
        "onset": 45.29593679429846,
        "offset": 45.344,
        "velocity": 43
    },
    {
        "pitch": 36,
        "onset": 45.928760985345924,
        "offset": 46.02581522326258,
        "velocity": 43
    },
    {
        "pitch": 36,
        "onset": 46.43894181671478,
        "offset": 46.53812954953534,
        "velocity": 43
    },
    {
        "pitch": 36,
        "onset": 46.88430322243205,
        "offset": 46.984092588801865,
        "velocity": 43
    },
    {
        "pitch": 36,
        "onset": 48.16809484338954,
        "offset": 48.224000000000004,
        "velocity": 43
    },
    {
        "pitch": 38,
        "onset": 49.32010251174569,
        "offset": 49.424,
        "velocity": 32
    },
    {
        "pitch": 36,
        "onset": 49.45511354452143,
        "offset": 49.560091400964836,
        "velocity": 43
    },
    {
        "pitch": 38,
        "onset": 49.64071003951941,
        "offset": 49.68,
        "velocity": 36
    },
    {
        "pitch": 38,
        "onset": 50.59723863512187,
        "offset": 50.656,
        "velocity": 32
    },
    {
        "pitch": 36,
        "onset": 52.00778750706426,
        "offset": 52.10609162194917,
        "velocity": 43
    },
    {
        "pitch": 38,
        "onset": 52.185532317591466,
        "offset": 52.288000000000004,
        "velocity": 36
    },
    {
        "pitch": 38,
        "onset": 54.724007011202595,
        "offset": 54.816,
        "velocity": 36
    },
    {
        "pitch": 36,
        "onset": 54.88796791037759,
        "offset": 54.98779809603526,
        "velocity": 43
    },
    {
        "pitch": 36,
        "onset": 55.36883083647055,
        "offset": 55.46550540465772,
        "velocity": 48
    },
    {
        "pitch": 36,
        "onset": 55.83037547537382,
        "offset": 55.872,
        "velocity": 43
    },
    {
        "pitch": 38,
        "onset": 57.29630543217753,
        "offset": 57.39667649719141,
        "velocity": 36
    },
    {
        "pitch": 36,
        "onset": 57.93588104819256,
        "offset": 58.0395232283838,
        "velocity": 43
    },
    {
        "pitch": 38,
        "onset": 59.529207362924524,
        "offset": 59.632,
        "velocity": 36
    },
    {
        "pitch": 36,
        "onset": 59.987085255492794,
        "offset": 60.074564660066805,
        "velocity": 43
    },
    {
        "pitch": 36,
        "onset": 60.489213209497464,
        "offset": 60.57574115167553,
        "velocity": 45
    },
    {
        "pitch": 36,
        "onset": 60.93934709998562,
        "offset": 61.024,
        "velocity": 43
    },
    {
        "pitch": 38,
        "onset": 61.746628346872086,
        "offset": 61.84,
        "velocity": 42
    },
    {
        "pitch": 36,
        "onset": 61.75321790131841,
        "offset": 61.8482052243454,
        "velocity": 47
    },
    {
        "pitch": 38,
        "onset": 62.40146098884722,
        "offset": 62.47752817348823,
        "velocity": 36
    },
    {
        "pitch": 38,
        "onset": 62.72391972188391,
        "offset": 62.80997421664285,
        "velocity": 42
    },
    {
        "pitch": 36,
        "onset": 63.04237895857211,
        "offset": 63.104,
        "velocity": 40
    },
    {
        "pitch": 36,
        "onset": 64.30677740500492,
        "offset": 64.41112517601994,
        "velocity": 48
    },
    {
        "pitch": 36,
        "onset": 66.03993142757426,
        "offset": 66.096,
        "velocity": 43
    },
    {
        "pitch": 36,
        "onset": 67.27554474159676,
        "offset": 67.37598217062266,
        "velocity": 43
    },
    {
        "pitch": 36,
        "onset": 68.07958737758334,
        "offset": 68.16895117713517,
        "velocity": 46
    },
    {
        "pitch": 36,
        "onset": 68.40857554417242,
        "offset": 68.50529190447433,
        "velocity": 46
    },
    {
        "pitch": 36,
        "onset": 70.66351955174665,
        "offset": 70.752,
        "velocity": 46
    },
    {
        "pitch": 36,
        "onset": 71.00038745719743,
        "offset": 71.09655622832565,
        "velocity": 48
    },
    {
        "pitch": 36,
        "onset": 72.41281256987516,
        "offset": 72.51728346473787,
        "velocity": 43
    },
    {
        "pitch": 36,
        "onset": 73.19162592792634,
        "offset": 73.28,
        "velocity": 46
    },
    {
        "pitch": 36,
        "onset": 73.54372815567152,
        "offset": 73.68,
        "velocity": 48
    },
    {
        "pitch": 36,
        "onset": 75.7718307711838,
        "offset": 75.8556384976353,
        "velocity": 43
    },
    {
        "pitch": 36,
        "onset": 76.1177708788311,
        "offset": 76.20728039504701,
        "velocity": 46
    },
    {
        "pitch": 36,
        "onset": 78.33998971350275,
        "offset": 78.42572392466387,
        "velocity": 43
    },
    {
        "pitch": 38,
        "onset": 78.6863106058606,
        "offset": 78.75890068244608,
        "velocity": 36
    },
    {
        "pitch": 38,
        "onset": 79.01020251290315,
        "offset": 79.08800000000001,
        "velocity": 36
    },
    {
        "pitch": 36,
        "onset": 79.12739886967448,
        "offset": 79.23912440345755,
        "velocity": 48
    },
    {
        "pitch": 36,
        "onset": 80.88592997391397,
        "offset": 80.97246372898097,
        "velocity": 43
    },
    {
        "pitch": 36,
        "onset": 83.47581388854799,
        "offset": 83.584,
        "velocity": 46
    },
    {
        "pitch": 36,
        "onset": 85.19095334410275,
        "offset": 85.28582230452476,
        "velocity": 43
    },
    {
        "pitch": 36,
        "onset": 86.03787787736785,
        "offset": 86.13656150875022,
        "velocity": 48
    },
    {
        "pitch": 36,
        "onset": 86.4681555499939,
        "offset": 86.57904269242023,
        "velocity": 43
    },
    {
        "pitch": 38,
        "onset": 87.12322703882974,
        "offset": 87.21188347162177,
        "velocity": 40
    },
    {
        "pitch": 36,
        "onset": 87.28699258283704,
        "offset": 87.39146250002993,
        "velocity": 48
    },
    {
        "pitch": 36,
        "onset": 87.72503442271788,
        "offset": 87.82673522661787,
        "velocity": 43
    },
    {
        "pitch": 36,
        "onset": 88.56510174083448,
        "offset": 88.6646651513193,
        "velocity": 48
    },
    {
        "pitch": 36,
        "onset": 88.98701388334318,
        "offset": 89.09235144951823,
        "velocity": 43
    },
    {
        "pitch": 36,
        "onset": 89.33419965039674,
        "offset": 89.43134786093589,
        "velocity": 48
    },
    {
        "pitch": 36,
        "onset": 89.8619534103211,
        "offset": 89.96027760469731,
        "velocity": 48
    },
    {
        "pitch": 36,
        "onset": 90.3094495837344,
        "offset": 90.40874545972724,
        "velocity": 46
    },
    {
        "pitch": 36,
        "onset": 92.4030085061734,
        "offset": 92.50472703920607,
        "velocity": 48
    },
    {
        "pitch": 36,
        "onset": 92.8549085164952,
        "offset": 92.96262844020585,
        "velocity": 43
    },
    {
        "pitch": 36,
        "onset": 93.36751291359178,
        "offset": 93.46138063640502,
        "velocity": 46
    },
    {
        "pitch": 36,
        "onset": 94.4510372252997,
        "offset": 94.5478640159292,
        "velocity": 43
    },
    {
        "pitch": 36,
        "onset": 94.95168798576238,
        "offset": 95.0614730546829,
        "velocity": 48
    },
    {
        "pitch": 36,
        "onset": 95.39270848042224,
        "offset": 95.48612219834747,
        "velocity": 43
    },
    {
        "pitch": 36,
        "onset": 95.88249888848698,
        "offset": 95.97278286227603,
        "velocity": 46
    },
    {
        "pitch": 36,
        "onset": 96.33095967145744,
        "offset": 96.43711978460601,
        "velocity": 46
    },
    {
        "pitch": 36,
        "onset": 96.50665555100784,
        "offset": 96.58852222713753,
        "velocity": 48
    },
    {
        "pitch": 38,
        "onset": 96.65415474805928,
        "offset": 96.76013284360279,
        "velocity": 92
    },
    {
        "pitch": 36,
        "onset": 96.98182550891127,
        "offset": 97.07925499336832,
        "velocity": 43
    },
    {
        "pitch": 36,
        "onset": 97.96370516215207,
        "offset": 98.07270152868784,
        "velocity": 43
    },
    {
        "pitch": 36,
        "onset": 98.47600168511448,
        "offset": 98.5818119140798,
        "velocity": 46
    },
    {
        "pitch": 36,
        "onset": 99.56906540597424,
        "offset": 99.67300300168748,
        "velocity": 43
    },
    {
        "pitch": 36,
        "onset": 100.07162732237379,
        "offset": 100.17246775902042,
        "velocity": 48
    },
    {
        "pitch": 38,
        "onset": 100.38899590400443,
        "offset": 100.48,
        "velocity": 36
    },
    {
        "pitch": 36,
        "onset": 100.50958294947104,
        "offset": 100.61919738874828,
        "velocity": 43
    },
    {
        "pitch": 38,
        "onset": 101.34981557834205,
        "offset": 101.424,
        "velocity": 32
    },
    {
        "pitch": 36,
        "onset": 101.65857608898563,
        "offset": 101.776,
        "velocity": 48
    },
    {
        "pitch": 36,
        "onset": 102.11582935227808,
        "offset": 102.21651866790978,
        "velocity": 43
    },
    {
        "pitch": 36,
        "onset": 102.61473241845182,
        "offset": 102.72394763647974,
        "velocity": 43
    },
    {
        "pitch": 36,
        "onset": 103.04854067541204,
        "offset": 103.14677681669919,
        "velocity": 43
    },
    {
        "pitch": 36,
        "onset": 104.16522530009203,
        "offset": 104.26473815550109,
        "velocity": 46
    },
    {
        "pitch": 36,
        "onset": 105.16017352740444,
        "offset": 105.2644587020045,
        "velocity": 48
    },
    {
        "pitch": 36,
        "onset": 105.60024123089677,
        "offset": 105.7086189472761,
        "velocity": 43
    },
    {
        "pitch": 36,
        "onset": 106.1036892297457,
        "offset": 106.2090356489053,
        "velocity": 43
    },
    {
        "pitch": 38,
        "onset": 107.54645496855305,
        "offset": 107.64079101759073,
        "velocity": 32
    },
    {
        "pitch": 36,
        "onset": 107.71900392472253,
        "offset": 107.81768693827992,
        "velocity": 48
    },
    {
        "pitch": 36,
        "onset": 108.16663469650747,
        "offset": 108.27357665167833,
        "velocity": 43
    },
    {
        "pitch": 36,
        "onset": 108.66407107994605,
        "offset": 108.76617891881251,
        "velocity": 48
    },
    {
        "pitch": 36,
        "onset": 110.29488685977499,
        "offset": 110.39272673828076,
        "velocity": 48
    },
    {
        "pitch": 36,
        "onset": 110.7377333954111,
        "offset": 110.84117169063535,
        "velocity": 43
    },
    {
        "pitch": 36,
        "onset": 111.25443750717722,
        "offset": 111.35400566320354,
        "velocity": 43
    },
    {
        "pitch": 36,
        "onset": 113.24450490755925,
        "offset": 113.3365460631557,
        "velocity": 43
    },
    {
        "pitch": 36,
        "onset": 113.74742885627649,
        "offset": 113.83395938030635,
        "velocity": 46
    },
    {
        "pitch": 36,
        "onset": 114.3908548205371,
        "offset": 114.464,
        "velocity": 48
    },
    {
        "pitch": 36,
        "onset": 115.37755348952729,
        "offset": 115.47857686317887,
        "velocity": 48
    },
    {
        "pitch": 36,
        "onset": 115.84041781956734,
        "offset": 115.93874878922217,
        "velocity": 43
    },
    {
        "pitch": 36,
        "onset": 116.36120089214295,
        "offset": 116.45882735723376,
        "velocity": 47
    },
    {
        "pitch": 36,
        "onset": 116.80908906306095,
        "offset": 116.848,
        "velocity": 46
    },
    {
        "pitch": 36,
        "onset": 116.98349429817378,
        "offset": 117.08800000000001,
        "velocity": 48
    },
    {
        "pitch": 36,
        "onset": 118.37684760290962,
        "offset": 118.47400363513178,
        "velocity": 43
    },
    {
        "pitch": 36,
        "onset": 118.87194332584856,
        "offset": 118.96867511088386,
        "velocity": 43
    },
    {
        "pitch": 36,
        "onset": 120.48790571081807,
        "offset": 120.58622666044947,
        "velocity": 43
    },
    {
        "pitch": 36,
        "onset": 120.9368129614887,
        "offset": 121.03320162493918,
        "velocity": 43
    },
    {
        "pitch": 36,
        "onset": 122.03989194667834,
        "offset": 122.14141715619431,
        "velocity": 48
    },
    {
        "pitch": 36,
        "onset": 123.0478174206078,
        "offset": 123.14532150908875,
        "velocity": 43
    },
    {
        "pitch": 36,
        "onset": 123.5008651393418,
        "offset": 123.60005448334286,
        "velocity": 46
    },
    {
        "pitch": 36,
        "onset": 123.99129710027536,
        "offset": 124.07441599299815,
        "velocity": 40
    },
    {
        "pitch": 36,
        "onset": 125.0788377092841,
        "offset": 125.1779130738082,
        "velocity": 43
    },
    {
        "pitch": 36,
        "onset": 125.58384210391098,
        "offset": 125.68920274361078,
        "velocity": 48
    },
    {
        "pitch": 36,
        "onset": 126.03326264435468,
        "offset": 126.13618046683499,
        "velocity": 43
    },
    {
        "pitch": 36,
        "onset": 126.53176037491113,
        "offset": 126.63272835653706,
        "velocity": 43
    },
    {
        "pitch": 36,
        "onset": 126.99361914337193,
        "offset": 127.024,
        "velocity": 46
    },
    {
        "pitch": 36,
        "onset": 127.63223170162446,
        "offset": 127.73178878631884,
        "velocity": 43
    },
    {
        "pitch": 36,
        "onset": 128.1518132794523,
        "offset": 128.2531068439452,
        "velocity": 48
    },
    {
        "pitch": 36,
        "onset": 128.59701792478054,
        "offset": 128.69635729880446,
        "velocity": 43
    },
    {
        "pitch": 36,
        "onset": 129.71934692170723,
        "offset": 129.792,
        "velocity": 43
    },
    {
        "pitch": 36,
        "onset": 130.1719777110426,
        "offset": 130.27941146801524,
        "velocity": 43
    },
    {
        "pitch": 36,
        "onset": 130.68008966882363,
        "offset": 130.75599277141657,
        "velocity": 46
    },
    {
        "pitch": 36,
        "onset": 131.10458480492085,
        "offset": 131.15200000000002,
        "velocity": 48
    },
    {
        "pitch": 36,
        "onset": 131.44772663307606,
        "offset": 131.54585061196076,
        "velocity": 43
    },
    {
        "pitch": 36,
        "onset": 131.94262503333633,
        "offset": 132.02482522970024,
        "velocity": 43
    },
    {
        "pitch": 43,
        "onset": 132.26376433507068,
        "offset": 132.336,
        "velocity": 43
    },
    {
        "pitch": 36,
        "onset": 132.71577680514477,
        "offset": 132.82400231964624,
        "velocity": 46
    },
    {
        "pitch": 36,
        "onset": 133.52911374217587,
        "offset": 133.62779709568923,
        "velocity": 43
    },
    {
        "pitch": 36,
        "onset": 133.85295082529757,
        "offset": 133.952,
        "velocity": 43
    },
    {
        "pitch": 36,
        "onset": 134.02242267539896,
        "offset": 134.09739577053156,
        "velocity": 43
    },
    {
        "pitch": 36,
        "onset": 134.50777851582004,
        "offset": 134.60168468644122,
        "velocity": 48
    }
]