[
    {
        "pitch": 38,
        "onset": 3.753271526046728,
        "offset": 3.867855473846761,
        "velocity": 40
    },
    {
        "pitch": 36,
        "onset": 4.8122843287922965,
        "offset": 4.909740828361396,
        "velocity": 43
    },
    {
        "pitch": 38,
        "onset": 5.204015216708065,
        "offset": 5.314029501559321,
        "velocity": 40
    },
    {
        "pitch": 36,
        "onset": 7.8330737963653565,
        "offset": 7.933312454748482,
        "velocity": 41
    },
    {
        "pitch": 38,
        "onset": 13.846405726697203,
        "offset": 13.95041020116108,
        "velocity": 36
    },
    {
        "pitch": 36,
        "onset": 14.792266842887104,
        "offset": 14.88334996711736,
        "velocity": 40
    },
    {
        "pitch": 36,
        "onset": 16.831017256546847,
        "offset": 16.935992963157535,
        "velocity": 43
    },
    {
        "pitch": 36,
        "onset": 18.90655774450673,
        "offset": 19.015453731079802,
        "velocity": 43
    },
    {
        "pitch": 38,
        "onset": 20.228044480467844,
        "offset": 20.3338654349284,
        "velocity": 40
    },
    {
        "pitch": 36,
        "onset": 20.96774091910588,
        "offset": 21.077831213586002,
        "velocity": 48
    },
    {
        "pitch": 36,
        "onset": 21.348873324929823,
        "offset": 21.454527147897615,
        "velocity": 43
    },
    {
        "pitch": 38,
        "onset": 23.782192524101553,
        "offset": 23.879651891631795,
        "velocity": 40
    },
    {
        "pitch": 36,
        "onset": 23.943989538003354,
        "offset": 24.05478551994821,
        "velocity": 48
    },
    {
        "pitch": 38,
        "onset": 24.152656408347646,
        "offset": 24.249718413281073,
        "velocity": 40
    },
    {
        "pitch": 36,
        "onset": 24.32658085883715,
        "offset": 24.426940172810973,
        "velocity": 43
    },
    {
        "pitch": 38,
        "onset": 26.794289899368852,
        "offset": 26.89895936714618,
        "velocity": 40
    },
    {
        "pitch": 36,
        "onset": 26.96685138148445,
        "offset": 27.072776641566982,
        "velocity": 48
    },
    {
        "pitch": 36,
        "onset": 27.34269898955007,
        "offset": 27.44910315425793,
        "velocity": 43
    },
    {
        "pitch": 38,
        "onset": 29.221954245754247,
        "offset": 29.334533917162386,
        "velocity": 40
    },
    {
        "pitch": 38,
        "onset": 29.784177551680717,
        "offset": 29.881031538674808,
        "velocity": 40
    },
    {
        "pitch": 38,
        "onset": 30.155572377057787,
        "offset": 30.25139608737074,
        "velocity": 36
    },
    {
        "pitch": 36,
        "onset": 30.325875895220506,
        "offset": 30.427736259880117,
        "velocity": 43
    },
    {
        "pitch": 38,
        "onset": 32.76583924142557,
        "offset": 32.86563955978519,
        "velocity": 40
    },
    {
        "pitch": 36,
        "onset": 32.928571324266564,
        "offset": 33.032516350784974,
        "velocity": 48
    },
    {
        "pitch": 38,
        "onset": 33.14763948009498,
        "offset": 33.24078848019451,
        "velocity": 40
    },
    {
        "pitch": 36,
        "onset": 33.32075296086206,
        "offset": 33.430288591429665,
        "velocity": 43
    },
    {
        "pitch": 38,
        "onset": 38.76521972346526,
        "offset": 38.86257921975741,
        "velocity": 40
    },
    {
        "pitch": 36,
        "onset": 38.93388943038108,
        "offset": 39.03082000533724,
        "velocity": 46
    },
    {
        "pitch": 36,
        "onset": 39.34879890658105,
        "offset": 39.45658723521354,
        "velocity": 43
    },
    {
        "pitch": 36,
        "onset": 41.99309425999826,
        "offset": 42.101631792461,
        "velocity": 48
    },
    {
        "pitch": 38,
        "onset": 42.183055084659806,
        "offset": 42.28917822013271,
        "velocity": 34
    },
    {
        "pitch": 38,
        "onset": 44.215129785229166,
        "offset": 44.32542723681775,
        "velocity": 40
    },
    {
        "pitch": 38,
        "onset": 44.77693681456334,
        "offset": 44.880766931163116,
        "velocity": 40
    },
    {
        "pitch": 36,
        "onset": 44.95078392066448,
        "offset": 45.0514856335671,
        "velocity": 48
    },
    {
        "pitch": 36,
        "onset": 45.33631851861291,
        "offset": 45.44221589945578,
        "velocity": 43
    },
    {
        "pitch": 38,
        "onset": 48.16561577521815,
        "offset": 48.26118185241258,
        "velocity": 36
    },
    {
        "pitch": 36,
        "onset": 48.345754453758076,
        "offset": 48.455582913137356,
        "velocity": 40
    },
    {
        "pitch": 36,
        "onset": 48.53981336987012,
        "offset": 48.64582106944738,
        "velocity": 48
    },
    {
        "pitch": 36,
        "onset": 51.35266688042446,
        "offset": 51.45001382701121,
        "velocity": 40
    },
    {
        "pitch": 38,
        "onset": 60.360636759357014,
        "offset": 60.462146962693915,
        "velocity": 40
    },
    {
        "pitch": 36,
        "onset": 60.54502560864466,
        "offset": 60.64941423675223,
        "velocity": 43
    },
    {
        "pitch": 38,
        "onset": 69.73691352798784,
        "offset": 69.85495032749786,
        "velocity": 40
    },
    {
        "pitch": 36,
        "onset": 73.49073969180219,
        "offset": 73.59420692923976,
        "velocity": 48
    },
    {
        "pitch": 36,
        "onset": 73.87778877453769,
        "offset": 73.97800186919683,
        "velocity": 43
    },
    {
        "pitch": 36,
        "onset": 80.93972253430766,
        "offset": 81.05022360333493,
        "velocity": 48
    },
    {
        "pitch": 38,
        "onset": 81.16318655075305,
        "offset": 81.26672942466999,
        "velocity": 51
    },
    {
        "pitch": 36,
        "onset": 81.34138579646493,
        "offset": 81.4490596519291,
        "velocity": 43
    },
    {
        "pitch": 38,
        "onset": 83.75962299416591,
        "offset": 83.86071269951398,
        "velocity": 40
    },
    {
        "pitch": 36,
        "onset": 84.31618105685592,
        "offset": 84.43390367526372,
        "velocity": 43
    }
]