[
    {
        "pitch": 36,
        "onset": 2.999208574088543,
        "offset": 3.109870663047547,
        "velocity": 43
    },
    {
        "pitch": 36,
        "onset": 3.36805456053611,
        "offset": 3.4930821048050906,
        "velocity": 43
    },
    {
        "pitch": 38,
        "onset": 3.7560081431285712,
        "offset": 3.8677708230261723,
        "velocity": 41
    },
    {
        "pitch": 36,
        "onset": 3.946820152427897,
        "offset": 4.054965349360102,
        "velocity": 41
    },
    {
        "pitch": 36,
        "onset": 4.807894177091215,
        "offset": 4.9204571398908685,
        "velocity": 40
    },
    {
        "pitch": 38,
        "onset": 5.202793655179401,
        "offset": 5.309623751464548,
        "velocity": 43
    },
    {
        "pitch": 36,
        "onset": 5.382002404900984,
        "offset": 5.497313807248041,
        "velocity": 41
    },
    {
        "pitch": 36,
        "onset": 6.35172109393518,
        "offset": 6.456395606748104,
        "velocity": 41
    },
    {
        "pitch": 36,
        "onset": 6.948276479935895,
        "offset": 7.04763999203821,
        "velocity": 41
    },
    {
        "pitch": 36,
        "onset": 7.830723513713066,
        "offset": 7.934691524716317,
        "velocity": 41
    },
    {
        "pitch": 36,
        "onset": 8.410511929433348,
        "offset": 8.52029228123077,
        "velocity": 41
    },
    {
        "pitch": 36,
        "onset": 9.350377692718743,
        "offset": 9.449860783066352,
        "velocity": 48
    },
    {
        "pitch": 36,
        "onset": 9.934201167876397,
        "offset": 10.040367320545593,
        "velocity": 41
    },
    {
        "pitch": 36,
        "onset": 10.83846673533788,
        "offset": 10.952363745630029,
        "velocity": 40
    },
    {
        "pitch": 36,
        "onset": 11.415479175185782,
        "offset": 11.520566630913192,
        "velocity": 40
    },
    {
        "pitch": 36,
        "onset": 12.343767119032677,
        "offset": 12.456309915390124,
        "velocity": 38
    },
    {
        "pitch": 36,
        "onset": 12.913665588472991,
        "offset": 13.027578143770896,
        "velocity": 41
    },
    {
        "pitch": 36,
        "onset": 14.408187049674439,
        "offset": 14.522528045779561,
        "velocity": 40
    },
    {
        "pitch": 36,
        "onset": 14.790589007808808,
        "offset": 14.885700488511864,
        "velocity": 40
    },
    {
        "pitch": 36,
        "onset": 14.96785042627611,
        "offset": 15.074291477490657,
        "velocity": 40
    },
    {
        "pitch": 36,
        "onset": 15.922503250852614,
        "offset": 16.024451342493908,
        "velocity": 40
    },
    {
        "pitch": 36,
        "onset": 16.824820640752744,
        "offset": 16.93783552076225,
        "velocity": 41
    },
    {
        "pitch": 36,
        "onset": 17.410271644536124,
        "offset": 17.517356414159142,
        "velocity": 41
    },
    {
        "pitch": 36,
        "onset": 18.342215333892117,
        "offset": 18.441576745486323,
        "velocity": 41
    },
    {
        "pitch": 36,
        "onset": 18.90390872663393,
        "offset": 19.01531172378353,
        "velocity": 42
    },
    {
        "pitch": 36,
        "onset": 19.847379909885618,
        "offset": 19.944820332210366,
        "velocity": 48
    },
    {
        "pitch": 38,
        "onset": 20.228740249227105,
        "offset": 20.330035054116625,
        "velocity": 43
    },
    {
        "pitch": 36,
        "onset": 20.409685362547705,
        "offset": 20.5222520829307,
        "velocity": 42
    },
    {
        "pitch": 38,
        "onset": 20.795159409887663,
        "offset": 20.90063624998528,
        "velocity": 41
    },
    {
        "pitch": 36,
        "onset": 20.96779782694693,
        "offset": 21.08007218282372,
        "velocity": 40
    },
    {
        "pitch": 36,
        "onset": 21.348020109404562,
        "offset": 21.45904785439794,
        "velocity": 40
    },
    {
        "pitch": 36,
        "onset": 21.916302248376283,
        "offset": 22.025044520773182,
        "velocity": 40
    },
    {
        "pitch": 36,
        "onset": 22.826247162735278,
        "offset": 22.939082346566916,
        "velocity": 40
    },
    {
        "pitch": 36,
        "onset": 23.395937199645214,
        "offset": 23.49920713016585,
        "velocity": 40
    },
    {
        "pitch": 38,
        "onset": 23.78293269936507,
        "offset": 23.88048335340248,
        "velocity": 43
    },
    {
        "pitch": 36,
        "onset": 23.943883273336056,
        "offset": 24.05955808494876,
        "velocity": 40
    },
    {
        "pitch": 38,
        "onset": 24.15129949511468,
        "offset": 24.249149896404326,
        "velocity": 43
    },
    {
        "pitch": 36,
        "onset": 24.326292976721636,
        "offset": 24.4297323392221,
        "velocity": 40
    },
    {
        "pitch": 36,
        "onset": 25.845346703351343,
        "offset": 25.944994946651054,
        "velocity": 48
    },
    {
        "pitch": 36,
        "onset": 26.40628683502745,
        "offset": 26.521835000532967,
        "velocity": 48
    },
    {
        "pitch": 38,
        "onset": 26.79297596911095,
        "offset": 26.900371982174445,
        "velocity": 41
    },
    {
        "pitch": 36,
        "onset": 26.963964490729737,
        "offset": 27.080072808256347,
        "velocity": 48
    },
    {
        "pitch": 36,
        "onset": 27.33732429275427,
        "offset": 27.44996040991064,
        "velocity": 41
    },
    {
        "pitch": 36,
        "onset": 28.83345994816076,
        "offset": 28.9373604141522,
        "velocity": 40
    },
    {
        "pitch": 38,
        "onset": 29.223190743800764,
        "offset": 29.33159211618369,
        "velocity": 32
    },
    {
        "pitch": 36,
        "onset": 29.40394836533665,
        "offset": 29.5128336395923,
        "velocity": 40
    },
    {
        "pitch": 38,
        "onset": 29.78335993228946,
        "offset": 29.880985712869542,
        "velocity": 40
    },
    {
        "pitch": 36,
        "onset": 29.943495954764302,
        "offset": 30.05798264359954,
        "velocity": 40
    },
    {
        "pitch": 36,
        "onset": 30.326088883156164,
        "offset": 30.427415437223377,
        "velocity": 40
    },
    {
        "pitch": 36,
        "onset": 31.807029870699136,
        "offset": 31.91328003727608,
        "velocity": 40
    },
    {
        "pitch": 36,
        "onset": 32.39006298071936,
        "offset": 32.494110658495536,
        "velocity": 40
    },
    {
        "pitch": 38,
        "onset": 32.771017918391266,
        "offset": 32.86241773912567,
        "velocity": 43
    },
    {
        "pitch": 36,
        "onset": 32.925780978276315,
        "offset": 33.034075923348226,
        "velocity": 40
    },
    {
        "pitch": 36,
        "onset": 33.319111750038495,
        "offset": 33.43187646428676,
        "velocity": 40
    },
    {
        "pitch": 38,
        "onset": 33.70158662047541,
        "offset": 33.80557055029987,
        "velocity": 43
    },
    {
        "pitch": 36,
        "onset": 33.91077810259618,
        "offset": 34.011307087479246,
        "velocity": 40
    },
    {
        "pitch": 36,
        "onset": 34.80603097434837,
        "offset": 34.893500133074696,
        "velocity": 40
    },
    {
        "pitch": 36,
        "onset": 35.367729209416815,
        "offset": 35.48200853963833,
        "velocity": 40
    },
    {
        "pitch": 36,
        "onset": 36.85587191520111,
        "offset": 36.96636999289994,
        "velocity": 40
    },
    {
        "pitch": 36,
        "onset": 37.78391419766103,
        "offset": 37.893459856481414,
        "velocity": 40
    },
    {
        "pitch": 36,
        "onset": 38.39229342272269,
        "offset": 38.501418857558065,
        "velocity": 40
    },
    {
        "pitch": 36,
        "onset": 38.93170865693053,
        "offset": 39.03685595209962,
        "velocity": 48
    },
    {
        "pitch": 36,
        "onset": 39.34976692551001,
        "offset": 39.464007161749954,
        "velocity": 44
    },
    {
        "pitch": 38,
        "onset": 41.238350022240496,
        "offset": 41.352929302979035,
        "velocity": 43
    },
    {
        "pitch": 36,
        "onset": 41.444594468960986,
        "offset": 41.54729266917776,
        "velocity": 40
    },
    {
        "pitch": 36,
        "onset": 41.991574507094995,
        "offset": 42.10409866066667,
        "velocity": 40
    },
    {
        "pitch": 36,
        "onset": 42.35935998715434,
        "offset": 42.47482022834127,
        "velocity": 40
    },
    {
        "pitch": 38,
        "onset": 42.7339818559011,
        "offset": 42.84529478332745,
        "velocity": 43
    },
    {
        "pitch": 36,
        "onset": 42.948948401321886,
        "offset": 43.04810430383096,
        "velocity": 40
    },
    {
        "pitch": 36,
        "onset": 43.82748372131242,
        "offset": 43.944358155960195,
        "velocity": 40
    },
    {
        "pitch": 38,
        "onset": 44.21515991788373,
        "offset": 44.32056282163032,
        "velocity": 43
    },
    {
        "pitch": 36,
        "onset": 44.405580306320545,
        "offset": 44.5057700346794,
        "velocity": 40
    },
    {
        "pitch": 36,
        "onset": 44.94916948066527,
        "offset": 45.06446080573091,
        "velocity": 40
    },
    {
        "pitch": 36,
        "onset": 45.335485385565455,
        "offset": 45.4487170975253,
        "velocity": 40
    },
    {
        "pitch": 36,
        "onset": 47.019745735019114,
        "offset": 47.12832672007848,
        "velocity": 48
    },
    {
        "pitch": 36,
        "onset": 47.949360573276145,
        "offset": 48.07028777188285,
        "velocity": 41
    },
    {
        "pitch": 36,
        "onset": 48.343761427980006,
        "offset": 48.45606949513193,
        "velocity": 43
    },
    {
        "pitch": 36,
        "onset": 48.54053618781275,
        "offset": 48.638278586346296,
        "velocity": 41
    },
    {
        "pitch": 36,
        "onset": 49.86283962431827,
        "offset": 49.96302642299314,
        "velocity": 42
    },
    {
        "pitch": 36,
        "onset": 50.05190487429658,
        "offset": 50.15408037433841,
        "velocity": 43
    },
    {
        "pitch": 36,
        "onset": 50.96902415565751,
        "offset": 51.085475187779096,
        "velocity": 41
    },
    {
        "pitch": 36,
        "onset": 51.35100814631242,
        "offset": 51.44995375836527,
        "velocity": 48
    },
    {
        "pitch": 36,
        "onset": 51.52636283839739,
        "offset": 51.624796579377225,
        "velocity": 44
    },
    {
        "pitch": 36,
        "onset": 53.03252841812394,
        "offset": 53.13341255752666,
        "velocity": 43
    },
    {
        "pitch": 36,
        "onset": 53.996583053277554,
        "offset": 54.10443680672956,
        "velocity": 41
    },
    {
        "pitch": 36,
        "onset": 54.550393576860195,
        "offset": 54.65187647543568,
        "velocity": 41
    },
    {
        "pitch": 36,
        "onset": 56.99238694427483,
        "offset": 57.09635941505344,
        "velocity": 41
    },
    {
        "pitch": 36,
        "onset": 57.542064265512515,
        "offset": 57.64204520268085,
        "velocity": 44
    },
    {
        "pitch": 36,
        "onset": 59.04612311266541,
        "offset": 59.14458861795445,
        "velocity": 43
    },
    {
        "pitch": 36,
        "onset": 59.990271712623745,
        "offset": 60.09230108528611,
        "velocity": 41
    },
    {
        "pitch": 36,
        "onset": 60.53645803893073,
        "offset": 60.64865262845352,
        "velocity": 41
    },
    {
        "pitch": 36,
        "onset": 62.03557126777742,
        "offset": 62.137978685917695,
        "velocity": 48
    },
    {
        "pitch": 36,
        "onset": 62.96729406665178,
        "offset": 63.076219150975554,
        "velocity": 48
    },
    {
        "pitch": 36,
        "onset": 63.33597741128954,
        "offset": 63.45032904831147,
        "velocity": 48
    },
    {
        "pitch": 36,
        "onset": 63.91067943864515,
        "offset": 64.02358668963043,
        "velocity": 40
    },
    {
        "pitch": 36,
        "onset": 64.85774212887941,
        "offset": 64.96869677220121,
        "velocity": 41
    },
    {
        "pitch": 36,
        "onset": 65.43443849835246,
        "offset": 65.54566503326522,
        "velocity": 40
    },
    {
        "pitch": 36,
        "onset": 66.34350545923304,
        "offset": 66.46091202705483,
        "velocity": 40
    },
    {
        "pitch": 36,
        "onset": 66.93896013181204,
        "offset": 67.05148519078455,
        "velocity": 41
    },
    {
        "pitch": 36,
        "onset": 67.86416107206283,
        "offset": 67.97582637170673,
        "velocity": 41
    },
    {
        "pitch": 36,
        "onset": 68.43999406498952,
        "offset": 68.55316597291552,
        "velocity": 40
    },
    {
        "pitch": 36,
        "onset": 69.35165196462256,
        "offset": 69.46469157193783,
        "velocity": 40
    },
    {
        "pitch": 36,
        "onset": 69.9360787809042,
        "offset": 70.04057223627456,
        "velocity": 41
    },
    {
        "pitch": 36,
        "onset": 70.83868109035086,
        "offset": 70.95130998222074,
        "velocity": 40
    },
    {
        "pitch": 36,
        "onset": 71.42586502605393,
        "offset": 71.53081004373414,
        "velocity": 43
    },
    {
        "pitch": 36,
        "onset": 72.35945960402236,
        "offset": 72.4681248286065,
        "velocity": 48
    },
    {
        "pitch": 38,
        "onset": 72.75483985908988,
        "offset": 72.85537531134479,
        "velocity": 43
    },
    {
        "pitch": 36,
        "onset": 72.93779806187986,
        "offset": 73.04772898934411,
        "velocity": 41
    },
    {
        "pitch": 36,
        "onset": 73.48632207564413,
        "offset": 73.59925557235125,
        "velocity": 41
    },
    {
        "pitch": 36,
        "onset": 73.87508706513158,
        "offset": 73.97686674098144,
        "velocity": 41
    },
    {
        "pitch": 36,
        "onset": 75.01522123297889,
        "offset": 75.11288135625156,
        "velocity": 48
    },
    {
        "pitch": 36,
        "onset": 75.38393313973023,
        "offset": 75.49682202873521,
        "velocity": 43
    },
    {
        "pitch": 36,
        "onset": 75.95497914293806,
        "offset": 76.0581063810499,
        "velocity": 40
    },
    {
        "pitch": 36,
        "onset": 76.85606332948116,
        "offset": 76.96749969933855,
        "velocity": 41
    },
    {
        "pitch": 36,
        "onset": 77.41593772742658,
        "offset": 77.53021573866246,
        "velocity": 40
    },
    {
        "pitch": 36,
        "onset": 78.34136244287383,
        "offset": 78.4476035523672,
        "velocity": 40
    },
    {
        "pitch": 38,
        "onset": 78.72539825661055,
        "offset": 78.82745860085474,
        "velocity": 43
    },
    {
        "pitch": 36,
        "onset": 78.9038237364228,
        "offset": 79.01550549901626,
        "velocity": 40
    },
    {
        "pitch": 36,
        "onset": 79.83286263453795,
        "offset": 79.94334289480067,
        "velocity": 40
    },
    {
        "pitch": 36,
        "onset": 80.41804165430275,
        "offset": 80.52032967218192,
        "velocity": 42
    },
    {
        "pitch": 38,
        "onset": 80.77474911223872,
        "offset": 80.87496631508424,
        "velocity": 43
    },
    {
        "pitch": 36,
        "onset": 80.93664965127127,
        "offset": 81.051099897645,
        "velocity": 41
    },
    {
        "pitch": 36,
        "onset": 81.33569264831219,
        "offset": 81.44965323837188,
        "velocity": 40
    },
    {
        "pitch": 38,
        "onset": 82.27565949259382,
        "offset": 82.37448794752693,
        "velocity": 40
    },
    {
        "pitch": 36,
        "onset": 82.82313146565536,
        "offset": 82.92492045660249,
        "velocity": 40
    },
    {
        "pitch": 36,
        "onset": 83.38346672942882,
        "offset": 83.49221781057943,
        "velocity": 40
    },
    {
        "pitch": 38,
        "onset": 83.75192071393704,
        "offset": 83.85957213275036,
        "velocity": 43
    },
    {
        "pitch": 36,
        "onset": 83.91911771112133,
        "offset": 84.04289867786721,
        "velocity": 40
    },
    {
        "pitch": 36,
        "onset": 84.31451144697246,
        "offset": 84.44019098552471,
        "velocity": 40
    },
    {
        "pitch": 36,
        "onset": 84.91603012110974,
        "offset": 85.01628015237313,
        "velocity": 40
    }
]