[
    {
        "pitch": 38,
        "onset": 2.3590852104429287,
        "offset": 2.4426836343052383,
        "velocity": 36
    },
    {
        "pitch": 36,
        "onset": 2.504220796526583,
        "offset": 2.6156673618430006,
        "velocity": 40
    },
    {
        "pitch": 38,
        "onset": 2.834020220034136,
        "offset": 2.9366169696230364,
        "velocity": 32
    },
    {
        "pitch": 36,
        "onset": 3.0148824167966644,
        "offset": 3.1125965078916535,
        "velocity": 40
    },
    {
        "pitch": 36,
        "onset": 3.479524315069001,
        "offset": 3.5875883983097605,
        "velocity": 40
    },
    {
        "pitch": 38,
        "onset": 3.7992038430174717,
        "offset": 3.896859936899525,
        "velocity": 32
    },
    {
        "pitch": 36,
        "onset": 3.9759291618586365,
        "offset": 4.074533684135521,
        "velocity": 40
    },
    {
        "pitch": 38,
        "onset": 4.309489924458101,
        "offset": 4.4,
        "velocity": 43
    },
    {
        "pitch": 36,
        "onset": 4.422822562534942,
        "offset": 4.536479389869579,
        "velocity": 40
    },
    {
        "pitch": 36,
        "onset": 4.75865652947119,
        "offset": 4.857869003483347,
        "velocity": 40
    },
    {
        "pitch": 36,
        "onset": 5.0793710579525655,
        "offset": 5.181101397800745,
        "velocity": 40
    },
    {
        "pitch": 38,
        "onset": 5.430169354908965,
        "offset": 5.525010864534061,
        "velocity": 43
    },
    {
        "pitch": 36,
        "onset": 5.595434406340401,
        "offset": 5.699670536996947,
        "velocity": 40
    },
    {
        "pitch": 36,
        "onset": 6.039938268573667,
        "offset": 6.152056778864358,
        "velocity": 40
    },
    {
        "pitch": 36,
        "onset": 6.5259676426436775,
        "offset": 6.631417103571751,
        "velocity": 40
    },
    {
        "pitch": 38,
        "onset": 6.8724520836932195,
        "offset": 6.960146971228537,
        "velocity": 40
    },
    {
        "pitch": 36,
        "onset": 7.254958216489942,
        "offset": 7.289485165156838,
        "velocity": 40
    },
    {
        "pitch": 38,
        "onset": 7.508689993652897,
        "offset": 7.582248073055535,
        "velocity": 32
    },
    {
        "pitch": 36,
        "onset": 7.6402348320516245,
        "offset": 7.737377173650491,
        "velocity": 41
    },
    {
        "pitch": 36,
        "onset": 8.151183557389656,
        "offset": 8.24487340441229,
        "velocity": 40
    },
    {
        "pitch": 38,
        "onset": 8.152516791570253,
        "offset": 8.243472831432806,
        "velocity": 40
    },
    {
        "pitch": 36,
        "onset": 8.599167464339013,
        "offset": 8.697870361924647,
        "velocity": 45
    },
    {
        "pitch": 36,
        "onset": 9.11108105928841,
        "offset": 9.205477942921089,
        "velocity": 40
    },
    {
        "pitch": 36,
        "onset": 9.55679542978322,
        "offset": 9.657899571919835,
        "velocity": 45
    },
    {
        "pitch": 36,
        "onset": 10.18441081042994,
        "offset": 10.280728192655452,
        "velocity": 40
    },
    {
        "pitch": 38,
        "onset": 10.505664966525996,
        "offset": 10.603638090241482,
        "velocity": 32
    },
    {
        "pitch": 36,
        "onset": 10.706176736825284,
        "offset": 10.793846677927853,
        "velocity": 40
    },
    {
        "pitch": 38,
        "onset": 11.01839822091041,
        "offset": 11.125681710388571,
        "velocity": 32
    },
    {
        "pitch": 36,
        "onset": 11.141937073729443,
        "offset": 11.253633936359712,
        "velocity": 40
    },
    {
        "pitch": 36,
        "onset": 11.619240372319721,
        "offset": 11.720850169399126,
        "velocity": 40
    },
    {
        "pitch": 36,
        "onset": 12.080025591335795,
        "offset": 12.185970843391525,
        "velocity": 40
    },
    {
        "pitch": 36,
        "onset": 12.705012165957928,
        "offset": 12.809357802755466,
        "velocity": 40
    },
    {
        "pitch": 36,
        "onset": 13.22742460767107,
        "offset": 13.33105458653644,
        "velocity": 40
    },
    {
        "pitch": 36,
        "onset": 13.682827231753027,
        "offset": 13.795126053900704,
        "velocity": 40
    },
    {
        "pitch": 36,
        "onset": 14.198714701508107,
        "offset": 14.29671152297429,
        "velocity": 40
    },
    {
        "pitch": 36,
        "onset": 14.652026739812866,
        "offset": 14.760852808907966,
        "velocity": 45
    },
    {
        "pitch": 36,
        "onset": 14.998581619675605,
        "offset": 15.09715680389725,
        "velocity": 43
    },
    {
        "pitch": 38,
        "onset": 15.174016382647471,
        "offset": 15.272353034855177,
        "velocity": 43
    },
    {
        "pitch": 36,
        "onset": 15.319742300987603,
        "offset": 15.420378301423119,
        "velocity": 40
    },
    {
        "pitch": 36,
        "onset": 15.815849246593311,
        "offset": 15.918164699501974,
        "velocity": 40
    },
    {
        "pitch": 36,
        "onset": 16.261850343142108,
        "offset": 16.37440722458984,
        "velocity": 45
    },
    {
        "pitch": 38,
        "onset": 16.588609769384526,
        "offset": 16.683877203053193,
        "velocity": 43
    },
    {
        "pitch": 36,
        "onset": 16.775882725532522,
        "offset": 16.867056646308132,
        "velocity": 43
    },
    {
        "pitch": 38,
        "onset": 17.081515992064325,
        "offset": 17.166601158447328,
        "velocity": 40
    },
    {
        "pitch": 36,
        "onset": 17.21168207946419,
        "offset": 17.314080042362118,
        "velocity": 45
    },
    {
        "pitch": 36,
        "onset": 17.458175392590704,
        "offset": 17.511515044662147,
        "velocity": 40
    },
    {
        "pitch": 36,
        "onset": 17.847043129989515,
        "offset": 17.945201705642738,
        "velocity": 43
    },
    {
        "pitch": 36,
        "onset": 18.342142152968698,
        "offset": 18.441226499909856,
        "velocity": 43
    },
    {
        "pitch": 38,
        "onset": 18.501760673080515,
        "offset": 18.60107433541999,
        "velocity": 32
    },
    {
        "pitch": 38,
        "onset": 18.67901478438041,
        "offset": 18.767446880218476,
        "velocity": 32
    },
    {
        "pitch": 36,
        "onset": 18.818432700508087,
        "offset": 18.917403009764907,
        "velocity": 43
    },
    {
        "pitch": 36,
        "onset": 19.124235887801966,
        "offset": 19.136,
        "velocity": 40
    },
    {
        "pitch": 38,
        "onset": 19.143356154670023,
        "offset": 19.235062090339518,
        "velocity": 32
    },
    {
        "pitch": 38,
        "onset": 19.318692215779215,
        "offset": 19.400146948850626,
        "velocity": 40
    },
    {
        "pitch": 38,
        "onset": 19.4502718627577,
        "offset": 19.549623845848735,
        "velocity": 40
    },
    {
        "pitch": 36,
        "onset": 19.623670693695896,
        "offset": 19.722214592246765,
        "velocity": 40
    },
    {
        "pitch": 36,
        "onset": 20.06612471626822,
        "offset": 20.171284553303774,
        "velocity": 45
    },
    {
        "pitch": 38,
        "onset": 20.24232646197373,
        "offset": 20.264410120708693,
        "velocity": 40
    },
    {
        "pitch": 36,
        "onset": 20.382599671623538,
        "offset": 20.48914533186781,
        "velocity": 41
    },
    {
        "pitch": 36,
        "onset": 20.879654107567823,
        "offset": 20.983327418240243,
        "velocity": 40
    },
    {
        "pitch": 36,
        "onset": 21.311634876473477,
        "offset": 21.418350095866998,
        "velocity": 40
    },
    {
        "pitch": 38,
        "onset": 21.495395702841424,
        "offset": 21.58885922434216,
        "velocity": 43
    },
    {
        "pitch": 36,
        "onset": 21.639845459802633,
        "offset": 21.75148060339802,
        "velocity": 40
    },
    {
        "pitch": 36,
        "onset": 22.134136870066325,
        "offset": 22.218770273576837,
        "velocity": 40
    },
    {
        "pitch": 43,
        "onset": 22.582073893597244,
        "offset": 22.69472106056971,
        "velocity": 47
    },
    {
        "pitch": 38,
        "onset": 22.778122108291697,
        "offset": 22.84630421043747,
        "velocity": 43
    },
    {
        "pitch": 36,
        "onset": 22.92103506252029,
        "offset": 23.032533199820254,
        "velocity": 40
    },
    {
        "pitch": 36,
        "onset": 23.443616232587704,
        "offset": 23.545135222521534,
        "velocity": 40
    },
    {
        "pitch": 38,
        "onset": 23.78171778343343,
        "offset": 23.86642563364691,
        "velocity": 43
    },
    {
        "pitch": 36,
        "onset": 23.913163553938308,
        "offset": 24.024833174620028,
        "velocity": 40
    },
    {
        "pitch": 38,
        "onset": 24.247218416648728,
        "offset": 24.3441792206299,
        "velocity": 43
    },
    {
        "pitch": 36,
        "onset": 24.439015474805604,
        "offset": 24.537438209677386,
        "velocity": 40
    },
    {
        "pitch": 38,
        "onset": 24.75856265709386,
        "offset": 24.843945326473033,
        "velocity": 43
    },
    {
        "pitch": 36,
        "onset": 24.887800774623038,
        "offset": 25.00064990497828,
        "velocity": 40
    },
    {
        "pitch": 36,
        "onset": 25.221535726768515,
        "offset": 25.317882067717548,
        "velocity": 40
    },
    {
        "pitch": 36,
        "onset": 25.538053022906944,
        "offset": 25.63953378023506,
        "velocity": 40
    },
    {
        "pitch": 38,
        "onset": 25.86400922268607,
        "offset": 25.962124504862288,
        "velocity": 40
    },
    {
        "pitch": 36,
        "onset": 26.029765241598817,
        "offset": 26.13661908631337,
        "velocity": 40
    },
    {
        "pitch": 36,
        "onset": 26.484186972197378,
        "offset": 26.59996655961234,
        "velocity": 40
    },
    {
        "pitch": 36,
        "onset": 26.9675675655242,
        "offset": 27.07755055812611,
        "velocity": 40
    },
    {
        "pitch": 36,
        "onset": 27.452929126856475,
        "offset": 27.5587383877968,
        "velocity": 45
    },
    {
        "pitch": 36,
        "onset": 28.080093994605484,
        "offset": 28.1750165963283,
        "velocity": 40
    },
    {
        "pitch": 36,
        "onset": 28.583948432469107,
        "offset": 28.68351724146944,
        "velocity": 40
    },
    {
        "pitch": 36,
        "onset": 29.01481404467048,
        "offset": 29.12723408980755,
        "velocity": 45
    },
    {
        "pitch": 36,
        "onset": 29.51297510350336,
        "offset": 29.611492395639612,
        "velocity": 40
    },
    {
        "pitch": 38,
        "onset": 29.842153882785222,
        "offset": 29.923491667689596,
        "velocity": 43
    },
    {
        "pitch": 36,
        "onset": 29.96929439468324,
        "offset": 30.07263502867765,
        "velocity": 45
    },
    {
        "pitch": 36,
        "onset": 30.599431232723717,
        "offset": 30.696666704893975,
        "velocity": 45
    },
    {
        "pitch": 36,
        "onset": 31.11107137483133,
        "offset": 31.196456506720892,
        "velocity": 43
    },
    {
        "pitch": 36,
        "onset": 31.410125184864597,
        "offset": 31.48888908092832,
        "velocity": 43
    },
    {
        "pitch": 36,
        "onset": 31.73566961620346,
        "offset": 31.822284133778936,
        "velocity": 40
    },
    {
        "pitch": 36,
        "onset": 32.36034998952329,
        "offset": 32.45679182656975,
        "velocity": 43
    },
    {
        "pitch": 36,
        "onset": 32.68013990447168,
        "offset": 32.77989262010942,
        "velocity": 43
    },
    {
        "pitch": 36,
        "onset": 33.14690086151259,
        "offset": 33.24160132949472,
        "velocity": 45
    },
    {
        "pitch": 36,
        "onset": 33.67160526781192,
        "offset": 33.769570760395595,
        "velocity": 40
    },
    {
        "pitch": 36,
        "onset": 34.123579992317126,
        "offset": 34.232947745103445,
        "velocity": 40
    },
    {
        "pitch": 36,
        "onset": 34.63167370669276,
        "offset": 34.730482147930466,
        "velocity": 40
    },
    {
        "pitch": 36,
        "onset": 35.086428379917024,
        "offset": 35.19155274147346,
        "velocity": 48
    },
    {
        "pitch": 36,
        "onset": 35.26953809361901,
        "offset": 35.28,
        "velocity": 48
    },
    {
        "pitch": 36,
        "onset": 35.72407504305944,
        "offset": 35.831631279750624,
        "velocity": 44
    },
    {
        "pitch": 36,
        "onset": 36.23282153662131,
        "offset": 36.33404982121455,
        "velocity": 48
    },
    {
        "pitch": 36,
        "onset": 36.66988672211782,
        "offset": 36.77857381636049,
        "velocity": 44
    },
    {
        "pitch": 36,
        "onset": 37.14458876151762,
        "offset": 37.246915524906036,
        "velocity": 43
    },
    {
        "pitch": 36,
        "onset": 37.63242387905595,
        "offset": 37.736610381230086,
        "velocity": 43
    },
    {
        "pitch": 36,
        "onset": 38.26295917698879,
        "offset": 38.37130070251856,
        "velocity": 43
    },
    {
        "pitch": 36,
        "onset": 38.78889366291118,
        "offset": 38.8731804499262,
        "velocity": 43
    },
    {
        "pitch": 38,
        "onset": 39.07811552249698,
        "offset": 39.17609749798391,
        "velocity": 32
    },
    {
        "pitch": 36,
        "onset": 39.22463097624512,
        "offset": 39.338062312959146,
        "velocity": 40
    },
    {
        "pitch": 36,
        "onset": 39.734050379575876,
        "offset": 39.833074206027064,
        "velocity": 40
    },
    {
        "pitch": 36,
        "onset": 40.186371876824055,
        "offset": 40.29715092910403,
        "velocity": 45
    },
    {
        "pitch": 36,
        "onset": 40.82280052381057,
        "offset": 40.92039908033723,
        "velocity": 40
    },
    {
        "pitch": 36,
        "onset": 41.318170004486014,
        "offset": 41.41320521266031,
        "velocity": 43
    },
    {
        "pitch": 36,
        "onset": 41.765067946194605,
        "offset": 41.86453717342245,
        "velocity": 43
    },
    {
        "pitch": 36,
        "onset": 42.26397233858968,
        "offset": 42.3669913081446,
        "velocity": 43
    },
    {
        "pitch": 36,
        "onset": 42.728251531801014,
        "offset": 42.768,
        "velocity": 43
    },
    {
        "pitch": 36,
        "onset": 42.90400018990955,
        "offset": 42.99687908249235,
        "velocity": 40
    },
    {
        "pitch": 36,
        "onset": 43.35264642800872,
        "offset": 43.45145822977258,
        "velocity": 43
    },
    {
        "pitch": 36,
        "onset": 43.86362605484855,
        "offset": 43.96092897528751,
        "velocity": 43
    },
    {
        "pitch": 36,
        "onset": 44.31145327500869,
        "offset": 44.40984706325199,
        "velocity": 40
    },
    {
        "pitch": 36,
        "onset": 44.82276423838467,
        "offset": 44.93464003977819,
        "velocity": 40
    },
    {
        "pitch": 36,
        "onset": 45.29266274846804,
        "offset": 45.344,
        "velocity": 40
    },
    {
        "pitch": 36,
        "onset": 45.47891459559071,
        "offset": 45.55480815717047,
        "velocity": 40
    },
    {
        "pitch": 36,
        "onset": 45.92752738929932,
        "offset": 46.025589293066375,
        "velocity": 40
    },
    {
        "pitch": 36,
        "onset": 46.43865781858645,
        "offset": 46.536065514343434,
        "velocity": 40
    },
    {
        "pitch": 36,
        "onset": 46.88143320314992,
        "offset": 46.98491264592637,
        "velocity": 40
    },
    {
        "pitch": 36,
        "onset": 47.21024543116413,
        "offset": 47.31459912903582,
        "velocity": 46
    },
    {
        "pitch": 36,
        "onset": 47.7066766536607,
        "offset": 47.80321298595628,
        "velocity": 43
    },
    {
        "pitch": 36,
        "onset": 48.16783942976532,
        "offset": 48.252665093184376,
        "velocity": 43
    },
    {
        "pitch": 36,
        "onset": 48.5029580064528,
        "offset": 48.60217074282046,
        "velocity": 43
    },
    {
        "pitch": 36,
        "onset": 49.01417322292617,
        "offset": 49.096196622549066,
        "velocity": 43
    },
    {
        "pitch": 36,
        "onset": 49.451412674837506,
        "offset": 49.56057702771003,
        "velocity": 43
    },
    {
        "pitch": 36,
        "onset": 49.778836456654794,
        "offset": 49.88164116041148,
        "velocity": 43
    },
    {
        "pitch": 36,
        "onset": 50.27493930902624,
        "offset": 50.361193781522786,
        "velocity": 47
    },
    {
        "pitch": 36,
        "onset": 51.062710977035486,
        "offset": 51.16053340509991,
        "velocity": 43
    },
    {
        "pitch": 36,
        "onset": 51.5597677801901,
        "offset": 51.65425679099219,
        "velocity": 43
    },
    {
        "pitch": 36,
        "onset": 52.00785929121054,
        "offset": 52.10775184856005,
        "velocity": 43
    },
    {
        "pitch": 36,
        "onset": 52.32746150016861,
        "offset": 52.42482967680557,
        "velocity": 43
    },
    {
        "pitch": 36,
        "onset": 52.791067201563706,
        "offset": 52.87394066107358,
        "velocity": 43
    },
    {
        "pitch": 36,
        "onset": 53.55958705322195,
        "offset": 53.67117948611099,
        "velocity": 43
    },
    {
        "pitch": 36,
        "onset": 54.09269006679765,
        "offset": 54.19381510387922,
        "velocity": 43
    },
    {
        "pitch": 36,
        "onset": 54.53876514219682,
        "offset": 54.608000000000004,
        "velocity": 43
    },
    {
        "pitch": 36,
        "onset": 54.88357151405223,
        "offset": 54.986938340999714,
        "velocity": 43
    },
    {
        "pitch": 36,
        "onset": 55.21658408468135,
        "offset": 55.30642697482561,
        "velocity": 43
    },
    {
        "pitch": 36,
        "onset": 55.37047362188612,
        "offset": 55.464535021133486,
        "velocity": 43
    },
    {
        "pitch": 36,
        "onset": 55.831037368087316,
        "offset": 55.856,
        "velocity": 43
    },
    {
        "pitch": 36,
        "onset": 57.4451672052823,
        "offset": 57.54514543371401,
        "velocity": 43
    },
    {
        "pitch": 36,
        "onset": 57.931957721484714,
        "offset": 58.037824966981766,
        "velocity": 43
    },
    {
        "pitch": 43,
        "onset": 58.70475133745015,
        "offset": 58.80892771435324,
        "velocity": 47
    },
    {
        "pitch": 36,
        "onset": 59.97911241914379,
        "offset": 60.07296192275802,
        "velocity": 43
    },
    {
        "pitch": 36,
        "onset": 60.48679305133564,
        "offset": 60.57112744273704,
        "velocity": 43
    },
    {
        "pitch": 36,
        "onset": 60.9379798444883,
        "offset": 61.024,
        "velocity": 43
    },
    {
        "pitch": 36,
        "onset": 61.26738924956992,
        "offset": 61.369473931382636,
        "velocity": 43
    },
    {
        "pitch": 36,
        "onset": 61.7379776494226,
        "offset": 61.84915487259983,
        "velocity": 43
    },
    {
        "pitch": 38,
        "onset": 61.74836646444156,
        "offset": 61.83073926580373,
        "velocity": 43
    },
    {
        "pitch": 36,
        "onset": 63.04361740515951,
        "offset": 63.120000000000005,
        "velocity": 48
    },
    {
        "pitch": 43,
        "onset": 63.1963581897097,
        "offset": 63.302304244950726,
        "velocity": 47
    },
    {
        "pitch": 43,
        "onset": 63.36561237345182,
        "offset": 63.440000000000005,
        "velocity": 47
    },
    {
        "pitch": 36,
        "onset": 64.30491394863326,
        "offset": 64.4099468463062,
        "velocity": 43
    },
    {
        "pitch": 36,
        "onset": 64.65386032414627,
        "offset": 64.75093101186516,
        "velocity": 48
    },
    {
        "pitch": 36,
        "onset": 65.58706228603891,
        "offset": 65.664,
        "velocity": 43
    },
    {
        "pitch": 36,
        "onset": 66.0393420776053,
        "offset": 66.08,
        "velocity": 43
    },
    {
        "pitch": 36,
        "onset": 66.35944188128337,
        "offset": 66.46771922841334,
        "velocity": 43
    },
    {
        "pitch": 36,
        "onset": 66.85093889961728,
        "offset": 66.9446062552629,
        "velocity": 43
    },
    {
        "pitch": 36,
        "onset": 67.27282710979306,
        "offset": 67.37330380886993,
        "velocity": 43
    },
    {
        "pitch": 43,
        "onset": 67.61396509916294,
        "offset": 67.7200879584642,
        "velocity": 47
    },
    {
        "pitch": 36,
        "onset": 68.07961525664484,
        "offset": 68.16862661297677,
        "velocity": 43
    },
    {
        "pitch": 43,
        "onset": 68.23101508994861,
        "offset": 68.3344885215264,
        "velocity": 47
    },
    {
        "pitch": 36,
        "onset": 68.39372260227782,
        "offset": 68.50500157777903,
        "velocity": 40
    },
    {
        "pitch": 43,
        "onset": 68.5516958905767,
        "offset": 68.65075922582425,
        "velocity": 47
    },
    {
        "pitch": 36,
        "onset": 68.87267640767791,
        "offset": 68.98414420429036,
        "velocity": 43
    },
    {
        "pitch": 36,
        "onset": 69.38367249253922,
        "offset": 69.47505210601554,
        "velocity": 43
    },
    {
        "pitch": 43,
        "onset": 70.19191266390831,
        "offset": 70.208,
        "velocity": 47
    },
    {
        "pitch": 36,
        "onset": 70.66072042713365,
        "offset": 70.75405473590433,
        "velocity": 43
    },
    {
        "pitch": 43,
        "onset": 70.82360989868978,
        "offset": 70.92192927384143,
        "velocity": 47
    },
    {
        "pitch": 36,
        "onset": 70.98578367847416,
        "offset": 71.09674716322222,
        "velocity": 43
    },
    {
        "pitch": 43,
        "onset": 71.14826522353258,
        "offset": 71.25676358809912,
        "velocity": 47
    },
    {
        "pitch": 36,
        "onset": 71.45886549587901,
        "offset": 71.56157950398512,
        "velocity": 44
    },
    {
        "pitch": 36,
        "onset": 71.97166712362876,
        "offset": 72.05718647186347,
        "velocity": 44
    },
    {
        "pitch": 36,
        "onset": 72.4173147858854,
        "offset": 72.51473501532658,
        "velocity": 43
    },
    {
        "pitch": 43,
        "onset": 72.75604909072017,
        "offset": 72.85597861974931,
        "velocity": 47
    },
    {
        "pitch": 36,
        "onset": 73.19186754873732,
        "offset": 73.27284947775574,
        "velocity": 43
    },
    {
        "pitch": 43,
        "onset": 73.35300275328606,
        "offset": 73.46334448866926,
        "velocity": 47
    },
    {
        "pitch": 36,
        "onset": 73.54290369372613,
        "offset": 73.6413098358792,
        "velocity": 44
    },
    {
        "pitch": 36,
        "onset": 75.76906367795752,
        "offset": 75.85617898730244,
        "velocity": 43
    },
    {
        "pitch": 43,
        "onset": 75.93437147782905,
        "offset": 76.0408657339915,
        "velocity": 47
    },
    {
        "pitch": 36,
        "onset": 76.10389893170469,
        "offset": 76.20319149520422,
        "velocity": 43
    },
    {
        "pitch": 43,
        "onset": 76.25467121993313,
        "offset": 76.36056101821278,
        "velocity": 47
    },
    {
        "pitch": 36,
        "onset": 76.58304706992924,
        "offset": 76.68150281091536,
        "velocity": 43
    },
    {
        "pitch": 36,
        "onset": 77.5193382477904,
        "offset": 77.552,
        "velocity": 43
    },
    {
        "pitch": 36,
        "onset": 77.84911259371782,
        "offset": 77.94345746471097,
        "velocity": 43
    },
    {
        "pitch": 36,
        "onset": 78.33312349168999,
        "offset": 78.4250924612725,
        "velocity": 44
    },
    {
        "pitch": 43,
        "onset": 78.4921759028431,
        "offset": 78.59873606075044,
        "velocity": 47
    },
    {
        "pitch": 36,
        "onset": 79.12667612439023,
        "offset": 79.23981949114813,
        "velocity": 43
    },
    {
        "pitch": 36,
        "onset": 79.63932490297846,
        "offset": 79.72456869930727,
        "velocity": 43
    },
    {
        "pitch": 36,
        "onset": 80.39172737811244,
        "offset": 80.48886255952257,
        "velocity": 43
    },
    {
        "pitch": 36,
        "onset": 80.88491415397506,
        "offset": 80.97125310323638,
        "velocity": 43
    },
    {
        "pitch": 43,
        "onset": 81.05722724011224,
        "offset": 81.16025040347421,
        "velocity": 47
    },
    {
        "pitch": 43,
        "onset": 81.65379781211618,
        "offset": 81.76723047149156,
        "velocity": 47
    },
    {
        "pitch": 36,
        "onset": 83.46479442935018,
        "offset": 83.56118014703304,
        "velocity": 46
    },
    {
        "pitch": 36,
        "onset": 84.27884297839678,
        "offset": 84.37943155461168,
        "velocity": 40
    },
    {
        "pitch": 36,
        "onset": 84.74831141919981,
        "offset": 84.85905281286045,
        "velocity": 40
    },
    {
        "pitch": 36,
        "onset": 85.18870194533613,
        "offset": 85.28851541839627,
        "velocity": 43
    },
    {
        "pitch": 36,
        "onset": 85.52695576079336,
        "offset": 85.62580915594937,
        "velocity": 40
    },
    {
        "pitch": 36,
        "onset": 86.03803957030644,
        "offset": 86.13648849101989,
        "velocity": 40
    },
    {
        "pitch": 36,
        "onset": 86.4651952037804,
        "offset": 86.5808265874299,
        "velocity": 40
    },
    {
        "pitch": 36,
        "onset": 86.78904814795318,
        "offset": 86.88917563149498,
        "velocity": 40
    },
    {
        "pitch": 36,
        "onset": 87.2878259451745,
        "offset": 87.38731748957117,
        "velocity": 40
    },
    {
        "pitch": 36,
        "onset": 87.72108844094765,
        "offset": 87.8323378586143,
        "velocity": 40
    },
    {
        "pitch": 36,
        "onset": 88.0398190339001,
        "offset": 88.14435916857414,
        "velocity": 40
    },
    {
        "pitch": 36,
        "onset": 88.56615937340122,
        "offset": 88.6644817400857,
        "velocity": 40
    },
    {
        "pitch": 36,
        "onset": 88.98383337657641,
        "offset": 89.09652672463834,
        "velocity": 40
    },
    {
        "pitch": 36,
        "onset": 89.322883138253,
        "offset": 89.43260199632812,
        "velocity": 40
    },
    {
        "pitch": 36,
        "onset": 89.86105004400642,
        "offset": 89.94811857443636,
        "velocity": 40
    },
    {
        "pitch": 36,
        "onset": 90.3049765505909,
        "offset": 90.40918107548082,
        "velocity": 40
    },
    {
        "pitch": 36,
        "onset": 90.67214150844877,
        "offset": 90.77422939701624,
        "velocity": 41
    },
    {
        "pitch": 36,
        "onset": 91.14282760075918,
        "offset": 91.22888887326017,
        "velocity": 40
    },
    {
        "pitch": 36,
        "onset": 91.88468739282604,
        "offset": 91.98194804672761,
        "velocity": 40
    },
    {
        "pitch": 36,
        "onset": 92.4057082636002,
        "offset": 92.50400640294968,
        "velocity": 40
    },
    {
        "pitch": 36,
        "onset": 92.85325226300215,
        "offset": 92.96760739928948,
        "velocity": 45
    },
    {
        "pitch": 36,
        "onset": 93.3651002160405,
        "offset": 93.46342603202052,
        "velocity": 40
    },
    {
        "pitch": 36,
        "onset": 93.81329990228473,
        "offset": 93.91925401590183,
        "velocity": 45
    },
    {
        "pitch": 36,
        "onset": 94.0073541426857,
        "offset": 94.08807951067774,
        "velocity": 40
    },
    {
        "pitch": 36,
        "onset": 94.45102092951976,
        "offset": 94.54746087091212,
        "velocity": 40
    },
    {
        "pitch": 36,
        "onset": 94.95172669876881,
        "offset": 95.05113637655465,
        "velocity": 40
    },
    {
        "pitch": 36,
        "onset": 95.38740865191933,
        "offset": 95.48454981896118,
        "velocity": 40
    },
    {
        "pitch": 36,
        "onset": 95.87975470807248,
        "offset": 95.97706383248008,
        "velocity": 40
    },
    {
        "pitch": 36,
        "onset": 96.32879000014697,
        "offset": 96.43884517346636,
        "velocity": 40
    },
    {
        "pitch": 36,
        "onset": 96.50323906715921,
        "offset": 96.58783509389139,
        "velocity": 40
    },
    {
        "pitch": 36,
        "onset": 96.97952617979733,
        "offset": 97.0801356872604,
        "velocity": 43
    },
    {
        "pitch": 38,
        "onset": 97.30819132306456,
        "offset": 97.39993744137097,
        "velocity": 43
    },
    {
        "pitch": 36,
        "onset": 97.49573230180808,
        "offset": 97.59943690993977,
        "velocity": 40
    },
    {
        "pitch": 36,
        "onset": 97.96064162294809,
        "offset": 98.07284882102807,
        "velocity": 40
    },
    {
        "pitch": 36,
        "onset": 98.29458689076067,
        "offset": 98.38001698133525,
        "velocity": 38
    },
    {
        "pitch": 36,
        "onset": 98.47278901755806,
        "offset": 98.57077376366435,
        "velocity": 40
    },
    {
        "pitch": 36,
        "onset": 98.91244469500849,
        "offset": 99.0182907785362,
        "velocity": 43
    },
    {
        "pitch": 36,
        "onset": 99.09590375391525,
        "offset": 99.18897115311215,
        "velocity": 40
    },
    {
        "pitch": 36,
        "onset": 99.56855186945938,
        "offset": 99.6724643184714,
        "velocity": 43
    },
    {
        "pitch": 38,
        "onset": 99.90203163577782,
        "offset": 100.00488661648137,
        "velocity": 43
    },
    {
        "pitch": 36,
        "onset": 100.07274993808558,
        "offset": 100.17015846999578,
        "velocity": 43
    },
    {
        "pitch": 36,
        "onset": 100.51050832954665,
        "offset": 100.61811776604867,
        "velocity": 43
    },
    {
        "pitch": 38,
        "onset": 100.8508720886472,
        "offset": 100.95324158487978,
        "velocity": 43
    },
    {
        "pitch": 36,
        "onset": 101.03177821400432,
        "offset": 101.12983411926139,
        "velocity": 43
    },
    {
        "pitch": 38,
        "onset": 101.3507267785843,
        "offset": 101.42958465230194,
        "velocity": 43
    },
    {
        "pitch": 36,
        "onset": 101.47901411608235,
        "offset": 101.58117785194179,
        "velocity": 43
    },
    {
        "pitch": 36,
        "onset": 101.66027114486863,
        "offset": 101.75185112242954,
        "velocity": 43
    },
    {
        "pitch": 36,
        "onset": 102.11504274727311,
        "offset": 102.21664602315344,
        "velocity": 43
    },
    {
        "pitch": 36,
        "onset": 102.4345073397894,
        "offset": 102.52270817830745,
        "velocity": 43
    },
    {
        "pitch": 36,
        "onset": 102.61559397656781,
        "offset": 102.71500836981964,
        "velocity": 44
    },
    {
        "pitch": 36,
        "onset": 103.04767979550473,
        "offset": 103.14660846818676,
        "velocity": 43
    },
    {
        "pitch": 43,
        "onset": 103.55673070454031,
        "offset": 103.64418824813295,
        "velocity": 47
    },
    {
        "pitch": 36,
        "onset": 104.1603875338685,
        "offset": 104.25270358534425,
        "velocity": 44
    },
    {
        "pitch": 36,
        "onset": 104.6384775243732,
        "offset": 104.74403066233073,
        "velocity": 40
    },
    {
        "pitch": 36,
        "onset": 105.15973849138348,
        "offset": 105.25846025599594,
        "velocity": 40
    },
    {
        "pitch": 36,
        "onset": 105.59890943584399,
        "offset": 105.70819755330344,
        "velocity": 40
    },
    {
        "pitch": 36,
        "onset": 106.10375493615659,
        "offset": 106.20467332289333,
        "velocity": 40
    },
    {
        "pitch": 36,
        "onset": 106.43424171129058,
        "offset": 106.51869051237816,
        "velocity": 40
    },
    {
        "pitch": 36,
        "onset": 106.74052323771679,
        "offset": 106.82807050493598,
        "velocity": 49
    },
    {
        "pitch": 36,
        "onset": 107.22228825889285,
        "offset": 107.32058134308997,
        "velocity": 45
    },
    {
        "pitch": 38,
        "onset": 107.54664177150099,
        "offset": 107.64913211505497,
        "velocity": 43
    },
    {
        "pitch": 36,
        "onset": 107.71913084016201,
        "offset": 107.81697050859674,
        "velocity": 43
    },
    {
        "pitch": 36,
        "onset": 108.16276869587342,
        "offset": 108.27973114494051,
        "velocity": 45
    },
    {
        "pitch": 36,
        "onset": 108.6636628469759,
        "offset": 108.7633467474116,
        "velocity": 40
    },
    {
        "pitch": 36,
        "onset": 109.12711371275219,
        "offset": 109.23455979114067,
        "velocity": 40
    },
    {
        "pitch": 36,
        "onset": 109.31208432175308,
        "offset": 109.39549709080259,
        "velocity": 40
    },
    {
        "pitch": 36,
        "onset": 109.75251029133129,
        "offset": 109.86394318433193,
        "velocity": 40
    },
    {
        "pitch": 36,
        "onset": 110.29452136734892,
        "offset": 110.39252834629713,
        "velocity": 40
    },
    {
        "pitch": 36,
        "onset": 110.73461630041554,
        "offset": 110.8402177048764,
        "velocity": 40
    },
    {
        "pitch": 36,
        "onset": 111.2547449589762,
        "offset": 111.35226479825302,
        "velocity": 40
    },
    {
        "pitch": 36,
        "onset": 111.89479701319361,
        "offset": 111.968,
        "velocity": 40
    },
    {
        "pitch": 36,
        "onset": 112.31191542576632,
        "offset": 112.40813772016311,
        "velocity": 45
    },
    {
        "pitch": 36,
        "onset": 112.8235577312243,
        "offset": 112.912,
        "velocity": 43
    },
    {
        "pitch": 43,
        "onset": 113.12590399479436,
        "offset": 113.21733257612746,
        "velocity": 47
    },
    {
        "pitch": 36,
        "onset": 113.24654984124993,
        "offset": 113.33633595639533,
        "velocity": 43
    },
    {
        "pitch": 43,
        "onset": 113.43855446694606,
        "offset": 113.5353513339089,
        "velocity": 40
    },
    {
        "pitch": 36,
        "onset": 113.74614806921713,
        "offset": 113.83314965409195,
        "velocity": 43
    },
    {
        "pitch": 43,
        "onset": 113.9086138984211,
        "offset": 113.99316966090419,
        "velocity": 40
    },
    {
        "pitch": 43,
        "onset": 114.07774425424888,
        "offset": 114.1558148490229,
        "velocity": 40
    },
    {
        "pitch": 36,
        "onset": 114.19947583845891,
        "offset": 114.24000000000001,
        "velocity": 43
    },
    {
        "pitch": 36,
        "onset": 114.38897715653574,
        "offset": 114.464,
        "velocity": 43
    },
    {
        "pitch": 36,
        "onset": 115.37875603488801,
        "offset": 115.4796065689706,
        "velocity": 40
    },
    {
        "pitch": 36,
        "onset": 115.83499711387348,
        "offset": 115.93913445802907,
        "velocity": 40
    },
    {
        "pitch": 36,
        "onset": 116.35980805697214,
        "offset": 116.456468284716,
        "velocity": 40
    },
    {
        "pitch": 36,
        "onset": 116.80909767638589,
        "offset": 116.848,
        "velocity": 43
    },
    {
        "pitch": 36,
        "onset": 116.98319695241949,
        "offset": 117.07942587364245,
        "velocity": 43
    },
    {
        "pitch": 36,
        "onset": 117.40443001782023,
        "offset": 117.5246546719639,
        "velocity": 40
    },
    {
        "pitch": 36,
        "onset": 117.9439804700725,
        "offset": 118.05089282057835,
        "velocity": 43
    },
    {
        "pitch": 36,
        "onset": 118.37623042286619,
        "offset": 118.47366739012965,
        "velocity": 43
    },
    {
        "pitch": 36,
        "onset": 118.87132125716161,
        "offset": 118.96885101365298,
        "velocity": 43
    },
    {
        "pitch": 36,
        "onset": 119.33728441452298,
        "offset": 119.376,
        "velocity": 46
    },
    {
        "pitch": 36,
        "onset": 119.5098234899133,
        "offset": 119.6100090495618,
        "velocity": 43
    },
    {
        "pitch": 36,
        "onset": 119.9749859843968,
        "offset": 120.0721651906157,
        "velocity": 46
    },
    {
        "pitch": 36,
        "onset": 120.48695120793809,
        "offset": 120.58543045810659,
        "velocity": 40
    },
    {
        "pitch": 36,
        "onset": 120.93635105274836,
        "offset": 121.03501950230229,
        "velocity": 44
    },
    {
        "pitch": 36,
        "onset": 121.43160788470031,
        "offset": 121.51607510865668,
        "velocity": 48
    },
    {
        "pitch": 36,
        "onset": 122.03779985872166,
        "offset": 122.13744181294064,
        "velocity": 44
    },
    {
        "pitch": 36,
        "onset": 122.52106544346911,
        "offset": 122.63163281877276,
        "velocity": 44
    },
    {
        "pitch": 36,
        "onset": 123.04764594067038,
        "offset": 123.1446139123342,
        "velocity": 44
    },
    {
        "pitch": 36,
        "onset": 123.50639027192308,
        "offset": 123.60459510863312,
        "velocity": 44
    },
    {
        "pitch": 36,
        "onset": 123.98997414536167,
        "offset": 124.0751120029592,
        "velocity": 44
    },
    {
        "pitch": 36,
        "onset": 124.45546630800048,
        "offset": 124.5546418483781,
        "velocity": 43
    },
    {
        "pitch": 36,
        "onset": 125.07653681795323,
        "offset": 125.18086717052213,
        "velocity": 44
    },
    {
        "pitch": 36,
        "onset": 125.5787978401159,
        "offset": 125.68857591636832,
        "velocity": 44
    },
    {
        "pitch": 36,
        "onset": 126.0284404899251,
        "offset": 126.13702125802521,
        "velocity": 43
    },
    {
        "pitch": 36,
        "onset": 126.52467143966267,
        "offset": 126.63259885355659,
        "velocity": 44
    },
    {
        "pitch": 36,
        "onset": 126.99742858781153,
        "offset": 127.024,
        "velocity": 43
    },
    {
        "pitch": 36,
        "onset": 127.16248088491457,
        "offset": 127.184,
        "velocity": 43
    },
    {
        "pitch": 36,
        "onset": 127.628649370454,
        "offset": 127.73597302932907,
        "velocity": 43
    },
    {
        "pitch": 36,
        "onset": 128.1514621407294,
        "offset": 128.2491588476347,
        "velocity": 43
    },
    {
        "pitch": 36,
        "onset": 128.59580892780525,
        "offset": 128.69647404481688,
        "velocity": 43
    },
    {
        "pitch": 36,
        "onset": 129.10190657225573,
        "offset": 129.1940451815245,
        "velocity": 43
    },
    {
        "pitch": 36,
        "onset": 129.54098377728687,
        "offset": 129.584,
        "velocity": 43
    },
    {
        "pitch": 36,
        "onset": 129.71760849159926,
        "offset": 129.792,
        "velocity": 43
    },
    {
        "pitch": 36,
        "onset": 130.1723075988319,
        "offset": 130.28016554304332,
        "velocity": 43
    },
    {
        "pitch": 36,
        "onset": 130.50256991762353,
        "offset": 130.528,
        "velocity": 43
    },
    {
        "pitch": 36,
        "onset": 130.67747158094204,
        "offset": 130.7605928328565,
        "velocity": 43
    },
    {
        "pitch": 36,
        "onset": 131.10123688236513,
        "offset": 131.15200000000002,
        "velocity": 44
    },
    {
        "pitch": 36,
        "onset": 131.44777533585895,
        "offset": 131.54612509297002,
        "velocity": 44
    },
    {
        "pitch": 36,
        "onset": 131.94207537293443,
        "offset": 132.0250799564354,
        "velocity": 44
    },
    {
        "pitch": 43,
        "onset": 132.26189172894485,
        "offset": 132.352,
        "velocity": 47
    },
    {
        "pitch": 36,
        "onset": 132.71169662117987,
        "offset": 132.82444012691602,
        "velocity": 44
    },
    {
        "pitch": 36,
        "onset": 133.22116265920172,
        "offset": 133.30919055670006,
        "velocity": 43
    },
    {
        "pitch": 36,
        "onset": 133.52872448203854,
        "offset": 133.63057810856944,
        "velocity": 43
    },
    {
        "pitch": 36,
        "onset": 134.02096771672166,
        "offset": 134.10264394791943,
        "velocity": 43
    },
    {
        "pitch": 36,
        "onset": 134.51003828068875,
        "offset": 134.6012715189969,
        "velocity": 43
    }
]